<mxfile host="app.diagrams.net" agent="Mozilla/5.0 (Macintosh; Intel Mac OS X 10_15_7) AppleWebKit/537.36 (KHTML, like Gecko) Chrome/131.0.0.0 Safari/537.36 Edg/131.0.0.0" version="25.0.3">
  <diagram id="5Fv_1JV15FytbW1wc0pJ" name="Trang-1">
    <mxGraphModel dx="1025" dy="762" grid="1" gridSize="10" guides="1" tooltips="1" connect="1" arrows="1" fold="1" page="1" pageScale="1" pageWidth="827" pageHeight="1169" math="0" shadow="0">
      <root>
        <mxCell id="0" />
        <mxCell id="1" parent="0" />
        <mxCell id="0Eg-FQ2wM8NS-DbCAtjP-1" value="Bắt đầu" style="ellipse;whiteSpace=wrap;html=1;" vertex="1" parent="1">
          <mxGeometry x="340" y="330" width="120" height="80" as="geometry" />
        </mxCell>
        <mxCell id="0Eg-FQ2wM8NS-DbCAtjP-7" style="edgeStyle=orthogonalEdgeStyle;rounded=0;orthogonalLoop=1;jettySize=auto;html=1;entryX=0.5;entryY=0;entryDx=0;entryDy=0;" edge="1" parent="1" source="0Eg-FQ2wM8NS-DbCAtjP-2" target="0Eg-FQ2wM8NS-DbCAtjP-4">
          <mxGeometry relative="1" as="geometry" />
        </mxCell>
        <mxCell id="0Eg-FQ2wM8NS-DbCAtjP-2" value="Nhập theta_init,&lt;div&gt;v_init, learning_rate, beta&lt;/div&gt;" style="shape=parallelogram;perimeter=parallelogramPerimeter;whiteSpace=wrap;html=1;fixedSize=1;" vertex="1" parent="1">
          <mxGeometry x="310" y="470" width="180" height="60" as="geometry" />
        </mxCell>
        <mxCell id="0Eg-FQ2wM8NS-DbCAtjP-6" style="edgeStyle=orthogonalEdgeStyle;rounded=0;orthogonalLoop=1;jettySize=auto;html=1;entryX=0.5;entryY=0;entryDx=0;entryDy=0;" edge="1" parent="1" source="0Eg-FQ2wM8NS-DbCAtjP-4" target="0Eg-FQ2wM8NS-DbCAtjP-5">
          <mxGeometry relative="1" as="geometry" />
        </mxCell>
        <mxCell id="0Eg-FQ2wM8NS-DbCAtjP-4" value="khởi tạo v = v_init, theta = [theta_init], it = 0" style="rounded=1;whiteSpace=wrap;html=1;" vertex="1" parent="1">
          <mxGeometry x="325" y="562" width="150" height="45" as="geometry" />
        </mxCell>
        <mxCell id="0Eg-FQ2wM8NS-DbCAtjP-15" style="edgeStyle=orthogonalEdgeStyle;rounded=0;orthogonalLoop=1;jettySize=auto;html=1;entryX=0.5;entryY=0;entryDx=0;entryDy=0;" edge="1" parent="1" source="0Eg-FQ2wM8NS-DbCAtjP-5" target="0Eg-FQ2wM8NS-DbCAtjP-8">
          <mxGeometry relative="1" as="geometry" />
        </mxCell>
        <mxCell id="0Eg-FQ2wM8NS-DbCAtjP-5" value="it &amp;lt; iteration" style="rhombus;whiteSpace=wrap;html=1;" vertex="1" parent="1">
          <mxGeometry x="350" y="640" width="100" height="80" as="geometry" />
        </mxCell>
        <mxCell id="0Eg-FQ2wM8NS-DbCAtjP-8" value="tính grad_value là gradient tại giá trị hiện tại" style="rounded=1;whiteSpace=wrap;html=1;" vertex="1" parent="1">
          <mxGeometry x="325" y="780" width="150" height="45" as="geometry" />
        </mxCell>
        <mxCell id="0Eg-FQ2wM8NS-DbCAtjP-17" style="edgeStyle=orthogonalEdgeStyle;rounded=0;orthogonalLoop=1;jettySize=auto;html=1;entryX=0.5;entryY=0;entryDx=0;entryDy=0;" edge="1" parent="1" source="0Eg-FQ2wM8NS-DbCAtjP-9" target="0Eg-FQ2wM8NS-DbCAtjP-10">
          <mxGeometry relative="1" as="geometry" />
        </mxCell>
        <mxCell id="0Eg-FQ2wM8NS-DbCAtjP-9" value="cập nhật vận tốc mới:&lt;br&gt;v_new = beta * v_old + learning_rate * grad_val" style="rounded=1;whiteSpace=wrap;html=1;" vertex="1" parent="1">
          <mxGeometry x="325" y="880" width="165" height="60" as="geometry" />
        </mxCell>
        <mxCell id="0Eg-FQ2wM8NS-DbCAtjP-18" style="edgeStyle=orthogonalEdgeStyle;rounded=0;orthogonalLoop=1;jettySize=auto;html=1;" edge="1" parent="1" source="0Eg-FQ2wM8NS-DbCAtjP-10" target="0Eg-FQ2wM8NS-DbCAtjP-11">
          <mxGeometry relative="1" as="geometry" />
        </mxCell>
        <mxCell id="0Eg-FQ2wM8NS-DbCAtjP-10" value="cập nhật giá trị theta mới:&lt;div&gt;theta_new = theta[-1] - v_new&lt;/div&gt;" style="rounded=1;whiteSpace=wrap;html=1;" vertex="1" parent="1">
          <mxGeometry x="325" y="980" width="165" height="60" as="geometry" />
        </mxCell>
        <mxCell id="0Eg-FQ2wM8NS-DbCAtjP-19" style="edgeStyle=orthogonalEdgeStyle;rounded=0;orthogonalLoop=1;jettySize=auto;html=1;entryX=0.5;entryY=0;entryDx=0;entryDy=0;" edge="1" parent="1" source="0Eg-FQ2wM8NS-DbCAtjP-11" target="0Eg-FQ2wM8NS-DbCAtjP-12">
          <mxGeometry relative="1" as="geometry" />
        </mxCell>
        <mxCell id="0Eg-FQ2wM8NS-DbCAtjP-11" value="thêm theta_new vào trong danh sách theta" style="rounded=1;whiteSpace=wrap;html=1;" vertex="1" parent="1">
          <mxGeometry x="325" y="1070" width="165" height="60" as="geometry" />
        </mxCell>
        <mxCell id="0Eg-FQ2wM8NS-DbCAtjP-12" value="Kiểm tra hội tụ" style="rounded=1;whiteSpace=wrap;html=1;" vertex="1" parent="1">
          <mxGeometry x="325" y="1160" width="165" height="60" as="geometry" />
        </mxCell>
        <mxCell id="0Eg-FQ2wM8NS-DbCAtjP-22" style="edgeStyle=orthogonalEdgeStyle;rounded=0;orthogonalLoop=1;jettySize=auto;html=1;" edge="1" parent="1" source="0Eg-FQ2wM8NS-DbCAtjP-13" target="0Eg-FQ2wM8NS-DbCAtjP-14">
          <mxGeometry relative="1" as="geometry" />
        </mxCell>
        <mxCell id="0Eg-FQ2wM8NS-DbCAtjP-13" value="Cập nhật vận tốc v = v_new" style="rounded=1;whiteSpace=wrap;html=1;" vertex="1" parent="1">
          <mxGeometry x="331" y="1280" width="165" height="60" as="geometry" />
        </mxCell>
        <mxCell id="0Eg-FQ2wM8NS-DbCAtjP-23" style="edgeStyle=orthogonalEdgeStyle;rounded=0;orthogonalLoop=1;jettySize=auto;html=1;entryX=0;entryY=0.5;entryDx=0;entryDy=0;" edge="1" parent="1" source="0Eg-FQ2wM8NS-DbCAtjP-14" target="0Eg-FQ2wM8NS-DbCAtjP-5">
          <mxGeometry relative="1" as="geometry">
            <Array as="points">
              <mxPoint x="290" y="1400" />
              <mxPoint x="290" y="680" />
            </Array>
          </mxGeometry>
        </mxCell>
        <mxCell id="0Eg-FQ2wM8NS-DbCAtjP-14" value="Tăng bộ đếm it = it + 1" style="rounded=1;whiteSpace=wrap;html=1;" vertex="1" parent="1">
          <mxGeometry x="331" y="1370" width="165" height="60" as="geometry" />
        </mxCell>
        <mxCell id="0Eg-FQ2wM8NS-DbCAtjP-16" style="edgeStyle=orthogonalEdgeStyle;rounded=0;orthogonalLoop=1;jettySize=auto;html=1;entryX=0.461;entryY=0.067;entryDx=0;entryDy=0;entryPerimeter=0;" edge="1" parent="1" source="0Eg-FQ2wM8NS-DbCAtjP-8" target="0Eg-FQ2wM8NS-DbCAtjP-9">
          <mxGeometry relative="1" as="geometry" />
        </mxCell>
        <mxCell id="0Eg-FQ2wM8NS-DbCAtjP-20" style="edgeStyle=orthogonalEdgeStyle;rounded=0;orthogonalLoop=1;jettySize=auto;html=1;entryX=0.467;entryY=0.017;entryDx=0;entryDy=0;entryPerimeter=0;" edge="1" parent="1" source="0Eg-FQ2wM8NS-DbCAtjP-12" target="0Eg-FQ2wM8NS-DbCAtjP-13">
          <mxGeometry relative="1" as="geometry" />
        </mxCell>
      </root>
    </mxGraphModel>
  </diagram>
</mxfile>
